<svg version="1.1" xmlns="http://www.w3.org/2000/svg" viewBox="0 0 1923.6841641433493 1208.4404553288841" width="1923.6841641433493" height="1208.4404553288841">
  <!-- svg-source:excalidraw -->
  
  <defs>
    <style class="style-fonts">
      @font-face {
        font-family: "Virgil";
        src: url("https://excalidraw.com/Virgil.woff2");
      }
      @font-face {
        font-family: "Cascadia";
        src: url("https://excalidraw.com/Cascadia.woff2");
      }
    </style>
    
  </defs>
  <rect x="0" y="0" width="1923.6841641433493" height="1208.4404553288841" fill="#ffffff"></rect><g stroke-linecap="round" transform="translate(10 361.00110870027777) rotate(0 590 418)"><path d="M32 0 M32 0 C404.46 6.74, 778.06 5.34, 1148 0 M32 0 C321.54 -0.12, 610.56 -0.15, 1148 0 M1148 0 C1173.26 -1.74, 1179.17 13.14, 1180 32 M1148 0 C1168.24 2.13, 1183.03 6.97, 1180 32 M1180 32 C1175.27 283.52, 1175.4 533.66, 1180 804 M1180 32 C1178.31 188.48, 1177.68 343.59, 1180 804 M1180 804 C1177.14 823.92, 1168.7 833.71, 1148 836 M1180 804 C1183.75 824.12, 1171.9 836.82, 1148 836 M1148 836 C732.04 837.32, 313.97 840.05, 32 836 M1148 836 C748.5 833.92, 348.08 835.09, 32 836 M32 836 C8.72 833.16, 1.39 826.88, 0 804 M32 836 C8.22 832.19, 1.15 822.21, 0 804 M0 804 C-1.42 517.6, -1.15 233.5, 0 32 M0 804 C2.48 621.05, 2.24 439.97, 0 32 M0 32 C-2.68 10.32, 9.71 -2.08, 32 0 M0 32 C-1.06 8.35, 11.56 1.28, 32 0" stroke="#1e1e1e" stroke-width="1" fill="none"></path></g><g transform="translate(15 366.00110870027777) rotate(0 39.759979248046875 17.5)"><text x="0" y="0" font-family="Virgil, Segoe UI Emoji" font-size="28px" fill="#1e1e1e" text-anchor="start" style="white-space: pre;" direction="ltr" dominant-baseline="text-before-edge"> Login</text></g><g stroke-linecap="round" transform="translate(939.6841641433493 360.440455328884) rotate(0 487 419)"><path d="M32 0 M32 0 C343.77 3.05, 658.53 3.7, 942 0 M32 0 C270.14 -7.31, 509.48 -7.33, 942 0 M942 0 C965.19 2.64, 970.78 11.68, 974 32 M942 0 C959.61 1.17, 974.77 11.84, 974 32 M974 32 C971.21 284.32, 973.37 535.84, 974 806 M974 32 C971.82 276.96, 971.64 522.82, 974 806 M974 806 C972.94 829.57, 964.05 840.95, 942 838 M974 806 C975.52 828.6, 966.99 834.69, 942 838 M942 838 C644.62 841.98, 349.36 841.19, 32 838 M942 838 C642.82 834.74, 345.09 834.04, 32 838 M32 838 C7.35 839, -2.71 830.12, 0 806 M32 838 C11.45 835.11, -1.08 824.32, 0 806 M0 806 C-1.41 579.43, -0.84 349.67, 0 32 M0 806 C-4.81 600.7, -5.16 395.59, 0 32 M0 32 C-2.01 11.45, 11.78 -0.77, 32 0 M0 32 C-2.38 7.26, 6.83 -4.54, 32 0" stroke="#1e1e1e" stroke-width="1" fill="none"></path></g><g transform="translate(1738.5282345779196 365.440455328884) rotate(0 85.07796478271484 17.5)"><text x="170.1559295654297" y="0" font-family="Virgil, Segoe UI Emoji" font-size="28px" fill="#1e1e1e" text-anchor="end" style="white-space: pre;" direction="ltr" dominant-baseline="text-before-edge">Interactive </text></g><g stroke-linecap="round" transform="translate(527.1051731726968 435.661793548608) rotate(0 117.5 24)"><path d="M12 0 M12 0 C68.02 0.1, 126.16 0.28, 223 0 M12 0 C56.48 -0.99, 99.99 -1.44, 223 0 M223 0 C231.12 1.22, 235.66 3.62, 235 12 M223 0 C232.37 -0.2, 236.65 6.08, 235 12 M235 12 C235.56 21.84, 233.49 27.86, 235 36 M235 12 C235.77 19.23, 235.57 27.04, 235 36 M235 36 C235.98 42.76, 230.14 47.69, 223 48 M235 36 C234.37 44.88, 229.88 49.56, 223 48 M223 48 C181.67 48.89, 139.63 49.61, 12 48 M223 48 C161.37 49.02, 98.77 48.86, 12 48 M12 48 C5.92 46.23, -1.05 44.38, 0 36 M12 48 C5.43 46.8, 0.5 45.88, 0 36 M0 36 C1.83 31.49, -1.8 25.65, 0 12 M0 36 C0.37 29.5, 0.08 21.41, 0 12 M0 12 C-0.7 5.84, 4.93 1.68, 12 0 M0 12 C0.33 6.13, 4.73 -0.94, 12 0" stroke="#1e1e1e" stroke-width="1" fill="none"></path></g><g transform="translate(532.1051731726968 440.661793548608) rotate(0 93.49195861816406 17.5)"><text x="0" y="0" font-family="Virgil, Segoe UI Emoji" font-size="28px" fill="#1e1e1e" text-anchor="start" style="white-space: pre;" direction="ltr" dominant-baseline="text-before-edge"> /etc/zprofile</text></g><g stroke-linecap="round"><g transform="translate(913.3633429939202 277.709363784737) rotate(0 -137.42821279550031 74.42006502513631)"><path d="M0.19 0.72 C-40.53 2.33, -199.53 -14.67, -245.21 10.79 C-290.88 36.26, -269.22 129.74, -273.88 153.52 M-1.17 0.05 C-41.93 1.79, -200.84 -16.41, -245.9 8.82 C-290.96 34.04, -267.01 127.07, -271.54 151.39" stroke="#1e1e1e" stroke-width="1" fill="none"></path></g><g transform="translate(913.3633429939202 277.709363784737) rotate(0 -137.42821279550031 74.42006502513631)"><path d="M-281.35 124.3 C-279.32 128.04, -276.61 135.59, -270.96 149.53 M-281.82 124.25 C-279.5 131.86, -275.92 141.04, -271.08 151.61" stroke="#1e1e1e" stroke-width="1" fill="none"></path></g><g transform="translate(913.3633429939202 277.709363784737) rotate(0 -137.42821279550031 74.42006502513631)"><path d="M-260.83 123.75 C-263.46 127.65, -265.4 135.32, -270.96 149.53 M-261.3 123.7 C-265.7 131.33, -268.84 140.69, -271.08 151.61" stroke="#1e1e1e" stroke-width="1" fill="none"></path></g></g><mask></mask><g stroke-linecap="round"><g transform="translate(637.0394664099779 485.870457269987) rotate(0 1.3087292213234605 29.847442516963667)"><path d="M0.28 0.63 C0.65 10.43, 1.32 49.97, 1.54 59.77 M-1.02 -0.08 C-0.26 9.93, 2.81 48.65, 3.64 58.26" stroke="#1e1e1e" stroke-width="1" fill="none"></path></g><g transform="translate(637.0394664099779 485.870457269987) rotate(0 1.3087292213234605 29.847442516963667)"><path d="M-7.56 29.66 C-3.42 36.36, -0.88 42.96, 1.94 58.53 M-8.04 30.75 C-4.13 40.84, -1.01 50.39, 4.53 57.95" stroke="#1e1e1e" stroke-width="1" fill="none"></path></g><g transform="translate(637.0394664099779 485.870457269987) rotate(0 1.3087292213234605 29.847442516963667)"><path d="M12.44 28.02 C11.64 35.17, 9.23 42.18, 1.94 58.53 M11.96 29.11 C9.11 39.6, 5.46 49.71, 4.53 57.95" stroke="#1e1e1e" stroke-width="1" fill="none"></path></g></g><mask></mask><g stroke-linecap="round" transform="translate(968.7597282441506 690.3572183404898) rotate(0 304.50000000000006 22.5)"><path d="M11.25 0 M11.25 0 C212.5 0.94, 413.29 1.97, 597.75 0 M11.25 0 C239.84 0.65, 468.89 0.6, 597.75 0 M597.75 0 C607.02 -1.88, 609.75 3.32, 609 11.25 M597.75 0 C606.92 -0.38, 607.76 5.11, 609 11.25 M609 11.25 C609.34 20.34, 609.04 28.37, 609 33.75 M609 11.25 C608.1 19.61, 608.15 26.05, 609 33.75 M609 33.75 C610.74 41.7, 605.94 44.13, 597.75 45 M609 33.75 C609.32 42.84, 605.47 42.86, 597.75 45 M597.75 45 C394.69 47.13, 190.26 47.99, 11.25 45 M597.75 45 C390.12 46.11, 182.97 46.36, 11.25 45 M11.25 45 C2.02 46.09, 1.68 42.78, 0 33.75 M11.25 45 C5.32 45.79, -1.38 39.57, 0 33.75 M0 33.75 C1.19 27.02, 0.84 19.2, 0 11.25 M0 33.75 C0.27 26.77, 1.03 18.16, 0 11.25 M0 11.25 C1.81 4.26, 3.66 -0.19, 11.25 0 M0 11.25 C-1.11 4.71, 3.2 1.68, 11.25 0" stroke="#1e1e1e" stroke-width="1" fill="none"></path></g><g transform="translate(973.7597282441506 695.3572183404898) rotate(0 65.18397521972656 17.5)"><text x="0" y="0" font-family="Virgil, Segoe UI Emoji" font-size="28px" fill="#1e1e1e" text-anchor="start" style="white-space: pre;" direction="ltr" dominant-baseline="text-before-edge"> ~/.zshrc</text></g><g stroke-linecap="round" transform="translate(968.4964090167199 548.3231265284337) rotate(0 305.00000000000006 22.5)"><path d="M11.25 0 M11.25 0 C144.51 -1, 277.82 -1.14, 598.75 0 M11.25 0 C130.99 1.44, 250.13 1.75, 598.75 0 M598.75 0 C604.29 1.81, 610.51 3.66, 610 11.25 M598.75 0 C606.04 -1.11, 610.96 3.2, 610 11.25 M610 11.25 C612.04 20.98, 608.93 28.3, 610 33.75 M610 11.25 C609.81 16.57, 610.98 23.75, 610 33.75 M610 33.75 C608.29 39.8, 605.13 44.46, 598.75 45 M610 33.75 C610.7 40.77, 606.84 44.17, 598.75 45 M598.75 45 C443.22 46.92, 288.07 46.07, 11.25 45 M598.75 45 C406.29 45.58, 214.54 45.83, 11.25 45 M11.25 45 C4.06 44.82, 0.68 42.87, 0 33.75 M11.25 45 C4.56 43.48, -1.74 41.81, 0 33.75 M0 33.75 C-1.78 29.15, 1.09 25.17, 0 11.25 M0 33.75 C-0.5 27.46, 0.61 23.43, 0 11.25 M0 11.25 C0.95 3.18, 3.08 -1.66, 11.25 0 M0 11.25 C-0.3 2.3, 1.66 0.48, 11.25 0" stroke="#1e1e1e" stroke-width="1" fill="none"></path></g><g transform="translate(973.4964090167199 553.3231265284337) rotate(0 79.16997528076172 17.5)"><text x="0" y="0" font-family="Virgil, Segoe UI Emoji" font-size="28px" fill="#1e1e1e" text-anchor="start" style="white-space: pre;" direction="ltr" dominant-baseline="text-before-edge"> /etc/zshrc</text></g><g stroke-linecap="round" transform="translate(265.6780084266387 850.4438519134368) rotate(0 17.73183977678957 17.73183977678957)"><path d="M11.08 0.37 C14.42 -1.3, 20.49 -1.58, 24.23 -0.08 C27.96 1.42, 31.67 5.81, 33.5 9.37 C35.32 12.93, 35.69 17.53, 35.17 21.29 C34.66 25.06, 33.32 29.68, 30.42 31.96 C27.51 34.24, 21.52 35.19, 17.72 34.99 C13.92 34.79, 10.55 33.19, 7.6 30.76 C4.65 28.34, 0.98 23.87, 0.03 20.44 C-0.92 17.01, -0.24 13.34, 1.89 10.18 C4.03 7.03, 10.88 3.23, 12.84 1.5 C14.79 -0.23, 13.7 -0.26, 13.63 -0.19 M15.86 1.24 C19.26 0.39, 23.92 0.18, 27.17 2.22 C30.42 4.26, 34.32 9.57, 35.35 13.46 C36.38 17.35, 35.37 21.92, 33.34 25.57 C31.31 29.23, 26.85 34.06, 23.15 35.37 C19.45 36.67, 14.72 34.85, 11.13 33.41 C7.53 31.96, 3.14 29.81, 1.56 26.69 C-0.02 23.56, 0.92 18.19, 1.65 14.66 C2.38 11.13, 3.15 7.71, 5.96 5.51 C8.77 3.31, 16.66 2.54, 18.49 1.46 C20.31 0.37, 17.09 -0.98, 16.92 -1.01" stroke="#1e1e1e" stroke-width="1" fill="none"></path></g><g stroke-linecap="round" transform="translate(273.8167087903712 858.5825522771692) rotate(0 9.59313941305706 9.593139413057031)"><path d="M5.66 0.02 C7.42 -0.79, 10.05 0.72, 12.04 1.33 C14.03 1.94, 16.51 2.15, 17.6 3.68 C18.69 5.21, 18.73 8.36, 18.58 10.53 C18.44 12.69, 18.24 15.3, 16.75 16.68 C15.25 18.06, 11.77 18.63, 9.61 18.8 C7.45 18.97, 5.46 18.83, 3.78 17.7 C2.1 16.58, -0.07 14.17, -0.46 12.04 C-0.84 9.91, 0.32 6.68, 1.45 4.91 C2.58 3.15, 5.19 2.25, 6.31 1.44 C7.44 0.62, 8.07 -0.1, 8.22 0.02 M13.58 0.44 C15.19 1.22, 17.17 3.82, 18.13 5.67 C19.1 7.51, 19.8 9.58, 19.36 11.51 C18.93 13.44, 17.52 16.17, 15.54 17.25 C13.56 18.33, 9.68 17.91, 7.48 18.01 C5.27 18.11, 3.77 19.35, 2.31 17.86 C0.84 16.37, -1.28 11.3, -1.31 9.07 C-1.35 6.84, 0.57 5.99, 2.08 4.47 C3.59 2.96, 5.64 0.7, 7.75 0 C9.85 -0.71, 13.54 0.05, 14.72 0.23 C15.89 0.4, 14.98 0.81, 14.8 1.03" stroke="none" stroke-width="0" fill="#1e1e1e"></path><path d="M9.71 -0.97 C11.78 -0.95, 14.3 1.17, 15.82 2.69 C17.33 4.21, 18.23 6.14, 18.79 8.14 C19.35 10.13, 20.14 13.05, 19.19 14.68 C18.24 16.3, 14.97 17.31, 13.09 17.86 C11.22 18.41, 9.88 18.6, 7.93 17.99 C5.97 17.38, 2.71 15.6, 1.35 14.2 C0 12.79, -0.52 11.37, -0.21 9.58 C0.09 7.79, 1.5 5.22, 3.16 3.47 C4.83 1.71, 8.53 -0.33, 9.78 -0.94 C11.04 -1.54, 10.67 -0.46, 10.71 -0.16 M12.4 -0.51 C14.45 -0.05, 17.6 3.14, 18.66 5.2 C19.71 7.26, 19.56 9.58, 18.72 11.84 C17.89 14.11, 15.54 17.77, 13.64 18.78 C11.75 19.79, 9.39 18.42, 7.37 17.92 C5.35 17.41, 2.48 17.13, 1.51 15.73 C0.53 14.34, 1.43 11.37, 1.51 9.56 C1.59 7.74, 0.79 6.14, 2 4.84 C3.2 3.53, 6.79 2.6, 8.74 1.72 C10.69 0.85, 12.8 -0.22, 13.69 -0.4 C14.58 -0.58, 14.32 0.37, 14.09 0.64" stroke="#1e1e1e" stroke-width="1" fill="none"></path></g><g stroke-linecap="round" transform="translate(496.16548420556353 548.3231265284337) rotate(0 126.5 22.5)"><path d="M11.25 0 M11.25 0 C75.44 -0.97, 141.39 0.69, 241.75 0 M11.25 0 C86.67 1.03, 162.58 1.5, 241.75 0 M241.75 0 C249.21 0.36, 253.74 1.76, 253 11.25 M241.75 0 C250.77 -1.98, 253.15 5.59, 253 11.25 M253 11.25 C254.47 18.91, 252.29 22.03, 253 33.75 M253 11.25 C253.26 16.88, 252.14 22.91, 253 33.75 M253 33.75 C251.27 40.34, 249.46 45.19, 241.75 45 M253 33.75 C251.2 41.03, 251.3 45.16, 241.75 45 M241.75 45 C154.72 45.57, 68.85 43.81, 11.25 45 M241.75 45 C175.47 46.31, 108.51 47.27, 11.25 45 M11.25 45 C4.69 44.49, -0.57 42.29, 0 33.75 M11.25 45 C5.65 42.79, -0.3 40.91, 0 33.75 M0 33.75 C1.21 29.15, 1.41 24.8, 0 11.25 M0 33.75 C-0.2 27.59, 0.52 21.26, 0 11.25 M0 11.25 C1.06 1.77, 4.05 -1.14, 11.25 0 M0 11.25 C-0.77 5.63, 1.95 -0.61, 11.25 0" stroke="#1e1e1e" stroke-width="1" fill="none"></path></g><g transform="translate(501.16548420556353 553.3231265284337) rotate(0 79.5059585571289 17.5)"><text x="0" y="0" font-family="Virgil, Segoe UI Emoji" font-size="28px" fill="#1e1e1e" text-anchor="start" style="white-space: pre;" direction="ltr" dominant-baseline="text-before-edge"> ~/.zprofile</text></g><g stroke-linecap="round"><g transform="translate(486.52961892078855 572.5611694831568) rotate(0 -102.33620874756073 131.87678935207686)"><path d="M0.17 -0.53 C-30.33 5.64, -148.29 -6.65, -182.08 37.31 C-215.87 81.28, -199.1 225.51, -202.56 263.26 M-1.2 1.81 C-31.94 8.16, -149.34 -4.87, -183.09 38.88 C-216.83 82.62, -200.34 226.61, -203.68 264.28" stroke="#1e1e1e" stroke-width="1" fill="none"></path></g><g transform="translate(486.52961892078855 572.5611694831568) rotate(0 -102.33620874756073 131.87678935207686)"><path d="M-215.05 235.99 C-210.08 245.55, -207.18 255.58, -203.71 263.89 M-214.88 235.43 C-212.13 242.45, -208.96 249.9, -203.16 264.9" stroke="#1e1e1e" stroke-width="1" fill="none"></path></g><g transform="translate(486.52961892078855 572.5611694831568) rotate(0 -102.33620874756073 131.87678935207686)"><path d="M-194.53 235.83 C-197.24 245.48, -202.02 255.57, -203.71 263.89 M-194.36 235.26 C-196.58 242.29, -198.37 249.79, -203.16 264.9" stroke="#1e1e1e" stroke-width="1" fill="none"></path></g></g><mask></mask><g stroke-linecap="round"><g transform="translate(1172.4399759986893 273.15867395903774) rotate(0 95.38049703791188 131.96147592244026)"><path d="M0.37 0.81 C30.01 4.35, 148.71 -23.6, 177.68 20.83 C206.64 65.26, 174.97 226.29, 174.15 267.39 M-0.9 0.19 C29.14 3.95, 150.82 -22.44, 179.93 22.29 C209.04 67.02, 174.97 227.55, 173.75 268.57" stroke="#1e1e1e" stroke-width="1" fill="none"></path></g><g transform="translate(1172.4399759986893 273.15867395903774) rotate(0 95.38049703791188 131.96147592244026)"><path d="M168.2 237.91 C168.47 248.8, 170.24 254.75, 173.42 267.17 M167.01 239.24 C168.31 248.4, 171.56 258.78, 173.92 268.22" stroke="#1e1e1e" stroke-width="1" fill="none"></path></g><g transform="translate(1172.4399759986893 273.15867395903774) rotate(0 95.38049703791188 131.96147592244026)"><path d="M188.58 240.3 C183.09 250.57, 179.1 255.85, 173.42 267.17 M187.39 241.63 C181.94 250.08, 178.42 259.66, 173.92 268.22" stroke="#1e1e1e" stroke-width="1" fill="none"></path></g></g><mask></mask><g stroke-linecap="round" transform="translate(1027.6859970411083 10) rotate(0 16.909039464300918 16.909039464300918)"><path d="M10.88 0.04 C14.08 -1.36, 18.95 -0.78, 22.52 0.8 C26.09 2.38, 30.6 6.44, 32.29 9.52 C33.97 12.61, 33.36 15.72, 32.62 19.31 C31.88 22.89, 30.68 28.62, 27.86 31.03 C25.04 33.44, 19.53 34.13, 15.7 33.78 C11.88 33.44, 7.53 31.42, 4.93 28.97 C2.33 26.52, 0.55 22.46, 0.11 19.08 C-0.33 15.71, 0.4 11.88, 2.28 8.71 C4.15 5.55, 9.66 1.34, 11.37 0.09 C13.07 -1.16, 12.2 0.71, 12.52 1.23 M23.63 0.54 C26.91 1.63, 30.58 6.78, 31.99 10.2 C33.41 13.62, 32.99 17.54, 32.1 21.05 C31.22 24.55, 29.68 29.21, 26.69 31.24 C23.71 33.27, 17.78 33.53, 14.19 33.21 C10.6 32.89, 7.73 31.67, 5.17 29.31 C2.6 26.95, -1.08 23, -1.19 19.06 C-1.3 15.12, 2.02 8.63, 4.51 5.68 C7 2.72, 10.4 1.89, 13.75 1.34 C17.09 0.78, 22.98 2.18, 24.6 2.36 C26.23 2.54, 23.9 2.19, 23.52 2.42" stroke="none" stroke-width="0" fill="#1e1e1e"></path><path d="M15.79 0.28 C19.15 -0.27, 24.01 0.63, 27.04 2.68 C30.06 4.73, 32.94 8.86, 33.93 12.59 C34.92 16.31, 34.77 21.89, 32.98 25.03 C31.19 28.16, 26.54 29.91, 23.18 31.4 C19.82 32.89, 16.23 34.94, 12.84 33.96 C9.45 32.98, 5.12 28.58, 2.84 25.51 C0.56 22.45, -1.35 19.02, -0.85 15.56 C-0.35 12.11, 2.35 7.25, 5.85 4.78 C9.35 2.31, 16.92 1.33, 20.14 0.74 C23.36 0.14, 25.25 0.98, 25.19 1.22 M11.46 0.82 C14.47 -0.69, 19.57 -1.56, 22.66 -0.35 C25.74 0.86, 27.99 4.99, 29.99 8.1 C31.99 11.21, 34.71 14.82, 34.67 18.32 C34.62 21.82, 32.41 26.33, 29.72 29.1 C27.03 31.87, 22.22 34.81, 18.53 34.93 C14.84 35.05, 10.5 31.99, 7.59 29.83 C4.67 27.68, 2.1 25.2, 1.05 21.99 C0 18.78, -0.26 14.21, 1.27 10.6 C2.8 6.99, 8.88 1.86, 10.26 0.33 C11.63 -1.2, 9.44 1.16, 9.51 1.43" stroke="#1e1e1e" stroke-width="1" fill="none"></path></g><g stroke-linecap="round" transform="translate(934.9814568613119 115.3782438371309) rotate(0 117.5 25.5)"><path d="M12.75 0 M12.75 0 C79.1 -0.16, 147.95 -0.57, 222.25 0 M12.75 0 C61.36 -0.92, 109.56 -0.66, 222.25 0 M222.25 0 C231.6 1.52, 236.03 3.4, 235 12.75 M222.25 0 C231.66 1.81, 234.19 6.21, 235 12.75 M235 12.75 C234.47 20.14, 233.49 26.53, 235 38.25 M235 12.75 C234.96 17.36, 233.96 22.6, 235 38.25 M235 38.25 C234.34 47.9, 232.33 49.24, 222.25 51 M235 38.25 C233.04 47.52, 232.97 48.96, 222.25 51 M222.25 51 C159.93 48.94, 97.69 50.68, 12.75 51 M222.25 51 C173.27 51.37, 124.47 51.46, 12.75 51 M12.75 51 C3.28 52.99, -0.64 45.33, 0 38.25 M12.75 51 C3.84 51.59, -1.72 46.29, 0 38.25 M0 38.25 C-0.79 30.71, 0.58 20.82, 0 12.75 M0 38.25 C0.53 29.86, 0.09 20.92, 0 12.75 M0 12.75 C-0.6 4.92, 2.78 0.79, 12.75 0 M0 12.75 C-0.77 2.06, 3.63 -0.52, 12.75 0" stroke="#1e1e1e" stroke-width="1" fill="none"></path></g><g transform="translate(939.9814568613119 120.3782438371309) rotate(0 87.63996887207031 17.5)"><text x="0" y="0" font-family="Virgil, Segoe UI Emoji" font-size="28px" fill="#1e1e1e" text-anchor="start" style="white-space: pre;" direction="ltr" dominant-baseline="text-before-edge"> /etc/zshenv</text></g><g stroke-linecap="round"><g transform="translate(1048.123323784324 48.79129213855149) rotate(0 -0.49937234532382035 29.625949990616604)"><path d="M-0.43 0.21 C-0.79 10.19, -1.61 48.82, -1.8 58.97 M1.54 -0.73 C1.03 9.45, -1.94 49.97, -2.54 59.98" stroke="#1e1e1e" stroke-width="1" fill="none"></path></g><g transform="translate(1048.123323784324 48.79129213855149) rotate(0 -0.49937234532382035 29.625949990616604)"><path d="M-10.55 31.82 C-10.03 41.69, -3.72 48.23, -1.01 61.02 M-10.55 30.43 C-7.57 40.45, -6.14 50.11, -2.77 60.39" stroke="#1e1e1e" stroke-width="1" fill="none"></path></g><g transform="translate(1048.123323784324 48.79129213855149) rotate(0 -0.49937234532382035 29.625949990616604)"><path d="M9.93 33.2 C3.7 42.54, 3.26 48.62, -1.01 61.02 M9.92 31.81 C6.08 41.31, 0.69 50.51, -2.77 60.39" stroke="#1e1e1e" stroke-width="1" fill="none"></path></g></g><mask></mask><g stroke-linecap="round" transform="translate(924.9398173213817 250.5423685025677) rotate(0 117.5 25.5)"><path d="M12.75 0 M12.75 0 C66.93 0.37, 124.2 -1.38, 222.25 0 M12.75 0 C89.92 -0.25, 164.98 -0.97, 222.25 0 M222.25 0 C231.53 -0.23, 233.51 3.86, 235 12.75 M222.25 0 C228.66 -2.16, 235.33 4, 235 12.75 M235 12.75 C234.97 18.8, 234.26 25.9, 235 38.25 M235 12.75 C235.48 20.04, 235.23 26.1, 235 38.25 M235 38.25 C233.26 47.38, 230.04 49.68, 222.25 51 M235 38.25 C237.03 46.33, 230.57 49.29, 222.25 51 M222.25 51 C161.64 49.63, 102.19 52.1, 12.75 51 M222.25 51 C168.67 50.85, 113.95 51.17, 12.75 51 M12.75 51 C2.42 51.54, 1.9 45.66, 0 38.25 M12.75 51 C5.74 53.02, 1.22 46.47, 0 38.25 M0 38.25 C-1.21 27.94, -1.14 20.94, 0 12.75 M0 38.25 C-0.95 29.37, -0.13 22.47, 0 12.75 M0 12.75 C-0.05 2.25, 4.09 -0.6, 12.75 0 M0 12.75 C2.26 4.93, 2.47 1.13, 12.75 0" stroke="#1e1e1e" stroke-width="1" fill="none"></path></g><g transform="translate(929.9398173213817 255.5423685025677) rotate(0 73.65396881103516 17.5)"><text x="0" y="0" font-family="Virgil, Segoe UI Emoji" font-size="28px" fill="#1e1e1e" text-anchor="start" style="white-space: pre;" direction="ltr" dominant-baseline="text-before-edge"> ~/.zshenv</text></g><g stroke-linecap="round"><g transform="translate(1056.1474725490114 178.9849694592372) rotate(0 -1.3554712079310889 29.6558038924033)"><path d="M-0.14 -0.38 C-0.23 9.7, -1.34 50.96, -1.7 60.94 M-1.67 -1.63 C-1.81 8.07, -2.29 48.87, -2.57 59.22" stroke="#1e1e1e" stroke-width="1" fill="none"></path></g><g transform="translate(1056.1474725490114 178.9849694592372) rotate(0 -1.3554712079310889 29.6558038924033)"><path d="M-12.95 31.1 C-8.95 35.88, -9.35 43.14, -3.81 60.14 M-12.59 30.5 C-10.21 39.22, -5.9 47.06, -2.59 59.74" stroke="#1e1e1e" stroke-width="1" fill="none"></path></g><g transform="translate(1056.1474725490114 178.9849694592372) rotate(0 -1.3554712079310889 29.6558038924033)"><path d="M7.57 31.47 C7.37 36.15, 2.77 43.34, -3.81 60.14 M7.92 30.87 C4.33 39.42, 2.66 47.16, -2.59 59.74" stroke="#1e1e1e" stroke-width="1" fill="none"></path></g></g><mask></mask><g stroke-linecap="round"><g transform="translate(1279.067369769138 602.3160252770177) rotate(0 1.7180910106361011 38.8003068188666)"><path d="M1.14 -0.82 C1.75 12.26, 2.96 64.24, 3.16 77.35 M0.27 1.37 C0.82 14.67, 2.27 65.49, 2.46 78.42" stroke="#1e1e1e" stroke-width="1" fill="none"></path></g><g transform="translate(1279.067369769138 602.3160252770177) rotate(0 1.7180910106361011 38.8003068188666)"><path d="M-9.8 51.24 C-7.4 56.96, -3.78 63.16, 0.71 77.8 M-8.1 51.1 C-6.44 57.03, -3.73 62.87, 2.22 78.83" stroke="#1e1e1e" stroke-width="1" fill="none"></path></g><g transform="translate(1279.067369769138 602.3160252770177) rotate(0 1.7180910106361011 38.8003068188666)"><path d="M10.71 50.78 C7.84 56.8, 6.19 63.13, 0.71 77.8 M12.42 50.63 C9.84 56.82, 8.32 62.76, 2.22 78.83" stroke="#1e1e1e" stroke-width="1" fill="none"></path></g></g><mask></mask><g stroke-linecap="round" transform="translate(1393.3908388727173 894.023159386223) rotate(0 17.73183977678957 17.73183977678957)"><path d="M10.97 2.54 C14.3 0.74, 18.66 -0.74, 22.35 0.03 C26.04 0.79, 30.87 4.03, 33.11 7.14 C35.35 10.26, 36.42 14.85, 35.78 18.72 C35.15 22.59, 31.99 27.46, 29.31 30.36 C26.63 33.26, 23.45 35.86, 19.71 36.13 C15.96 36.4, 10.13 34.34, 6.84 31.97 C3.56 29.6, 0.94 25.5, 0.01 21.92 C-0.92 18.33, -0.81 14.04, 1.26 10.46 C3.34 6.89, 10.05 2.16, 12.45 0.48 C14.85 -1.2, 15.45 -0.04, 15.66 0.37 M24.97 0.77 C28.56 1.83, 31.48 5.84, 33.21 9.03 C34.93 12.23, 36.19 16.04, 35.29 19.93 C34.4 23.81, 30.63 29.92, 27.83 32.36 C25.02 34.79, 22.24 34.9, 18.47 34.53 C14.71 34.16, 8.39 32.38, 5.21 30.15 C2.04 27.91, -0.37 24.55, -0.59 21.15 C-0.8 17.74, 2.09 12.93, 3.93 9.71 C5.77 6.48, 6.85 3.16, 10.45 1.8 C14.05 0.43, 23.44 1.53, 25.54 1.5 C27.63 1.47, 23.61 1.29, 23.02 1.61" stroke="#1e1e1e" stroke-width="1" fill="none"></path></g><g stroke-linecap="round" transform="translate(1401.5295392364496 902.161859749956) rotate(0 9.593139413057031 9.593139413057031)"><path d="M10.37 0.02 C12.27 0.06, 15.11 1.15, 16.52 2.52 C17.93 3.88, 18.57 6.03, 18.83 8.22 C19.09 10.41, 19.13 13.86, 18.1 15.65 C17.06 17.44, 14.67 18.51, 12.63 18.98 C10.59 19.45, 7.78 19.24, 5.86 18.48 C3.93 17.71, 2.05 16.16, 1.06 14.4 C0.07 12.65, -0.47 10.13, -0.09 7.95 C0.3 5.77, 1.55 2.73, 3.37 1.32 C5.19 -0.08, 9.26 -0.47, 10.82 -0.48 C12.39 -0.48, 12.76 0.86, 12.76 1.3 M10.74 1.55 C12.27 1.64, 14.58 2.28, 15.78 3.71 C16.97 5.13, 17.82 8.11, 17.93 10.1 C18.03 12.09, 17.4 14.13, 16.4 15.65 C15.41 17.17, 13.87 18.69, 11.98 19.2 C10.1 19.71, 7.23 19.94, 5.09 18.73 C2.96 17.53, -0.12 14.26, -0.85 11.96 C-1.58 9.67, -0.3 6.64, 0.72 4.97 C1.73 3.3, 3.58 2.66, 5.24 1.96 C6.89 1.26, 9.64 1.02, 10.65 0.75 C11.66 0.49, 11.03 0.13, 11.29 0.37" stroke="none" stroke-width="0" fill="#1e1e1e"></path><path d="M8.89 -0.55 C10.84 -1.04, 14.3 0.18, 16.04 1.38 C17.77 2.58, 19.06 4.57, 19.27 6.65 C19.48 8.73, 18.17 11.76, 17.28 13.83 C16.4 15.9, 15.81 18.28, 13.98 19.06 C12.15 19.85, 8.44 19.29, 6.29 18.54 C4.14 17.8, 2.19 16.21, 1.08 14.6 C-0.02 12.99, -0.59 10.89, -0.35 8.88 C-0.11 6.87, 0.89 4.03, 2.5 2.53 C4.11 1.03, 8.06 0.19, 9.32 -0.11 C10.58 -0.41, 9.92 0.67, 10.03 0.75 M9.66 -0.07 C11.49 -0.31, 14.59 -0.35, 15.98 1.14 C17.36 2.64, 17.48 6.81, 17.97 8.88 C18.45 10.95, 19.89 12.08, 18.88 13.54 C17.86 15, 14.12 16.71, 11.88 17.65 C9.64 18.59, 6.95 19.56, 5.42 19.19 C3.88 18.81, 3.78 17.15, 2.66 15.39 C1.54 13.64, -1.7 10.8, -1.32 8.66 C-0.93 6.51, 3.3 3.94, 4.98 2.52 C6.66 1.09, 8.23 0.4, 8.78 0.11 C9.32 -0.18, 8.08 0.8, 8.26 0.77" stroke="#1e1e1e" stroke-width="1" fill="none"></path></g><g stroke-linecap="round"><g transform="translate(1407.4293735279791 748.0436773675848) rotate(0 1.968148846211193 66.75448612987844)"><path d="M0.44 0.14 C1.38 22.71, 4.25 111.96, 4.73 134.34 M-0.79 -0.83 C0.09 21.45, 2.84 109.58, 3.9 132.36" stroke="#1e1e1e" stroke-width="1" fill="none"></path></g><g transform="translate(1407.4293735279791 748.0436773675848) rotate(0 1.968148846211193 66.75448612987844)"><path d="M-7.19 104.96 C-4.69 108.74, -2.09 118.7, 2.89 133.89 M-6.67 104.74 C-4.21 110.93, -2.26 119.04, 2.93 132.23" stroke="#1e1e1e" stroke-width="1" fill="none"></path></g><g transform="translate(1407.4293735279791 748.0436773675848) rotate(0 1.968148846211193 66.75448612987844)"><path d="M13.32 104.18 C11.24 108.21, 9.27 118.34, 2.89 133.89 M13.84 103.96 C11.07 110.42, 7.81 118.73, 2.93 132.23" stroke="#1e1e1e" stroke-width="1" fill="none"></path></g></g><mask></mask><g stroke-linecap="round"><g transform="translate(757.5278706634456 576.6786952327775) rotate(0 99.05480860107764 -6.301804692769309)"><path d="M0.3 -0.62 C33.31 -2.99, 166.28 -12.3, 199.11 -14.28 M-1 1.67 C31.84 -0.54, 165.17 -10.43, 198.62 -13.08" stroke="#1e1e1e" stroke-width="1" fill="none"></path></g><g transform="translate(757.5278706634456 576.6786952327775) rotate(0 99.05480860107764 -6.301804692769309)"><path d="M170.27 0.76 C180.76 -7.1, 194.27 -8.98, 197 -14.84 M172.27 0.07 C177.82 -3.45, 184.78 -7.32, 198.52 -13.12" stroke="#1e1e1e" stroke-width="1" fill="none"></path></g><g transform="translate(757.5278706634456 576.6786952327775) rotate(0 99.05480860107764 -6.301804692769309)"><path d="M168.71 -19.7 C179.8 -19.67, 193.91 -13.64, 197 -14.84 M170.71 -20.39 C176.82 -18.57, 184.19 -17.1, 198.52 -13.12" stroke="#1e1e1e" stroke-width="1" fill="none"></path></g></g><mask></mask><g stroke-linecap="round" transform="translate(512.3395614258375 839.4713868764101) rotate(0 280 26)"><path d="M13 0 M13 0 C215.38 0.51, 417.75 0.16, 547 0 M13 0 C190.81 -2.06, 367.65 -1.63, 547 0 M547 0 C557.54 -1.63, 558.44 5.24, 560 13 M547 0 C556.21 1.75, 557.82 4.94, 560 13 M560 13 C561.63 20.9, 561.61 27.29, 560 39 M560 13 C559.66 20.37, 559.16 29.32, 560 39 M560 39 C561.68 49.02, 553.88 50.99, 547 52 M560 39 C560.5 47.73, 557.39 52, 547 52 M547 52 C417.59 54.2, 290.18 53.88, 13 52 M547 52 C357.75 52.47, 168.17 52.16, 13 52 M13 52 C5.42 53.16, 0.39 46.21, 0 39 M13 52 C3.69 53.05, -0.8 47.67, 0 39 M0 39 C-0.14 32.26, -1.12 22.11, 0 13 M0 39 C-0.47 32.78, 0.4 24.38, 0 13 M0 13 C0.82 2.63, 2.47 0.31, 13 0 M0 13 C0.84 6.01, 2.57 -1.3, 13 0" stroke="#1e1e1e" stroke-width="1" fill="none"></path></g><g transform="translate(517.3395614258375 844.4713868764101) rotate(0 79.65997314453125 17.5)"><text x="0" y="0" font-family="Virgil, Segoe UI Emoji" font-size="28px" fill="#1e1e1e" text-anchor="start" style="white-space: pre;" direction="ltr" dominant-baseline="text-before-edge"> /etc/zlogin</text></g><g stroke-linecap="round"><g transform="translate(958.1405012150815 715.9095945325752) rotate(0 -80.09125236486165 53.864173249835915)"><path d="M0.78 0.94 C-23.41 2.17, -119.77 -11.16, -145.84 6.94 C-171.91 25.04, -153.89 92.16, -155.66 109.54 M-0.27 0.39 C-24.56 1.77, -120.79 -10.33, -146.8 8 C-172.81 26.33, -154.71 93.53, -156.32 110.37" stroke="#1e1e1e" stroke-width="1" fill="none"></path></g><g transform="translate(958.1405012150815 715.9095945325752) rotate(0 -80.09125236486165 53.864173249835915)"><path d="M-167.3 83.07 C-167.43 89.98, -164.39 95.35, -155.09 108.5 M-168.57 83.75 C-163.45 93.75, -160.27 104.66, -156.56 111.01" stroke="#1e1e1e" stroke-width="1" fill="none"></path></g><g transform="translate(958.1405012150815 715.9095945325752) rotate(0 -80.09125236486165 53.864173249835915)"><path d="M-146.85 81.38 C-151.97 88.84, -153.9 94.62, -155.09 108.5 M-148.12 82.07 C-150.77 92.84, -155.35 104.39, -156.56 111.01" stroke="#1e1e1e" stroke-width="1" fill="none"></path></g></g><mask></mask><g stroke-linecap="round" transform="translate(512.2408879232332 1001.8841857226195) rotate(0 286 24)"><path d="M12 0 M12 0 C189.46 1.74, 366.22 2.28, 560 0 M12 0 C149.72 2.06, 287.8 2.35, 560 0 M560 0 C566.95 -1.18, 572.79 3.65, 572 12 M560 0 C569.35 -0.14, 572.47 2.48, 572 12 M572 12 C573.37 17.91, 572.17 27.65, 572 36 M572 12 C572.77 18.96, 570.93 23.99, 572 36 M572 36 C572.31 45.27, 566.74 46.81, 560 48 M572 36 C571.87 43.97, 568.68 45.99, 560 48 M560 48 C448.57 48.02, 335.53 47.89, 12 48 M560 48 C410.97 46.77, 262.15 46.75, 12 48 M12 48 C5.44 48.93, -0.13 44.98, 0 36 M12 48 C4.63 46.27, 2.23 41.83, 0 36 M0 36 C1.11 31.74, 0.57 27.52, 0 12 M0 36 C-0.45 26.32, -0.89 17.6, 0 12 M0 12 C1.26 5.87, 5.73 -0.06, 12 0 M0 12 C-0.37 4.59, 4.4 0.34, 12 0" stroke="#1e1e1e" stroke-width="1" fill="none"></path></g><g transform="translate(517.2408879232332 1006.8841857226195) rotate(0 65.6739730834961 17.5)"><text x="0" y="0" font-family="Virgil, Segoe UI Emoji" font-size="28px" fill="#1e1e1e" text-anchor="start" style="white-space: pre;" direction="ltr" dominant-baseline="text-before-edge"> ~/.zlogin</text></g><g stroke-linecap="round"><g transform="translate(816.3001228072139 902.1374893446418) rotate(0 -2.049635181707231 42.827898571140736)"><path d="M-0.94 -0.42 C-1.53 13.8, -3.35 71.25, -3.85 85.75 M0.77 -1.69 C0.03 12.71, -3.95 72.95, -4.87 87.35" stroke="#1e1e1e" stroke-width="1" fill="none"></path></g><g transform="translate(816.3001228072139 902.1374893446418) rotate(0 -2.049635181707231 42.827898571140736)"><path d="M-13.99 58.31 C-10.67 66.27, -6.97 73.64, -3.49 86.71 M-13.51 59.51 C-10.85 66, -8.58 74.58, -4.05 88.19" stroke="#1e1e1e" stroke-width="1" fill="none"></path></g><g transform="translate(816.3001228072139 902.1374893446418) rotate(0 -2.049635181707231 42.827898571140736)"><path d="M6.49 59.64 C4.11 67.07, 2.11 74.07, -3.49 86.71 M6.97 60.84 C3.8 67, 0.25 75.2, -4.05 88.19" stroke="#1e1e1e" stroke-width="1" fill="none"></path></g></g><mask></mask><g stroke-linecap="round"><g transform="translate(504.0368360930829 1026.8352038794485) rotate(0 -111.09423981366211 -63.67970765426469)"><path d="M-0.4 0.8 C-33.96 -0.41, -163.63 14.12, -200.52 -7.97 C-237.42 -30.06, -218.5 -111.26, -221.78 -131.74 M1.59 0.18 C-32.12 -1.32, -164.16 12.02, -200.99 -9.8 C-237.81 -31.63, -216.27 -110.8, -219.38 -130.78" stroke="#1e1e1e" stroke-width="1" fill="none"></path></g><g transform="translate(504.0368360930829 1026.8352038794485) rotate(0 -111.09423981366211 -63.67970765426469)"><path d="M-209.27 -100.56 C-212.75 -114.26, -218.05 -122.23, -219.07 -131.7 M-211.52 -101.6 C-212.7 -107.35, -214.3 -113.56, -220.08 -129.98" stroke="#1e1e1e" stroke-width="1" fill="none"></path></g><g transform="translate(504.0368360930829 1026.8352038794485) rotate(0 -111.09423981366211 -63.67970765426469)"><path d="M-229.76 -101.63 C-225.68 -114.87, -223.42 -122.45, -219.07 -131.7 M-232.01 -102.67 C-228.91 -108.31, -226.21 -114.29, -220.08 -129.98" stroke="#1e1e1e" stroke-width="1" fill="none"></path></g></g><mask></mask><g stroke-linecap="round"><g transform="translate(1093.592703606104 1025.9255539951891) rotate(0 165.82287338617692 -42.7106488543464)"><path d="M0.17 -0.84 C50.59 -1.23, 247.02 11.47, 301.38 -3.28 C355.73 -18.02, 322.31 -75.1, 326.3 -89.29 M-1.21 1.33 C49.23 0.65, 246.35 9.69, 300.85 -5.21 C355.35 -20.11, 321.74 -73.83, 325.82 -88.07" stroke="#1e1e1e" stroke-width="1" fill="none"></path></g><g transform="translate(1093.592703606104 1025.9255539951891) rotate(0 165.82287338617692 -42.7106488543464)"><path d="M338.63 -60.31 C337.95 -66.12, 334.14 -73.15, 326.9 -86.9 M340.32 -61.32 C337.7 -66.64, 333.66 -72.24, 325.26 -87.93" stroke="#1e1e1e" stroke-width="1" fill="none"></path></g><g transform="translate(1093.592703606104 1025.9255539951891) rotate(0 165.82287338617692 -42.7106488543464)"><path d="M318.32 -57.36 C321.81 -63.79, 322.14 -71.43, 326.9 -86.9 M320.01 -58.36 C321.47 -64.48, 321.51 -70.67, 325.26 -87.93" stroke="#1e1e1e" stroke-width="1" fill="none"></path></g></g><mask></mask></svg>